HIERARCHY
ROOT Hips
{
	OFFSET -0.179506 -22.333345 2.821913
	CHANNELS 6 Xposition Yposition Zposition Zrotation Yrotation Xrotation 
	JOINT LeftUpLeg
	{
		OFFSET 6.951974 -9.140623 -0.681533
		CHANNELS 3 Zrotation Yrotation Xrotation
		JOINT LeftLeg
		{
			OFFSET 3.427654 -37.519855 -0.449580
			CHANNELS 3 Zrotation Yrotation Xrotation
			JOINT LeftFoot
			{
				OFFSET -1.359570 -39.796059 -4.369333
				CHANNELS 3 Zrotation Yrotation Xrotation
				JOINT LeftToe
				{
					OFFSET 2.635814 -5.579078 11.928840
					CHANNELS 3 Zrotation Yrotation Xrotation
					End Site
					{
						OFFSET 0.000000 0.000000 0.000000
					}
				}
			}
		}
	}
	JOINT RightUpLeg
	{
		OFFSET -6.767048 -9.052170 -0.431982
		CHANNELS 3 Zrotation Yrotation Xrotation
		JOINT RightLeg
		{
			OFFSET -3.829005 -38.256897 -0.885003
			CHANNELS 3 Zrotation Yrotation Xrotation
			JOINT RightFoot
			{
				OFFSET 1.577377 -39.841461 -4.231180
				CHANNELS 3 Zrotation Yrotation Xrotation
				JOINT RightToe
				{
					OFFSET -2.537174 -4.814398 12.334795
					CHANNELS 3 Zrotation Yrotation Xrotation
					End Site
					{
						OFFSET 0.000000 0.000000 0.000000
					}
				}
			}
		}
	}
	JOINT Spine
	{
		OFFSET -0.253288 10.896323 -2.669631
		CHANNELS 3 Zrotation Yrotation Xrotation
		JOINT Spine1
		{
			OFFSET 0.548704 13.518043 0.109247
			CHANNELS 3 Zrotation Yrotation Xrotation
			JOINT Spine2
			{
				OFFSET 0.145701 5.292222 2.542457
				CHANNELS 3 Zrotation Yrotation Xrotation
				JOINT Neck
				{
					OFFSET -0.277840 21.387037 -4.285703
					CHANNELS 3 Zrotation Yrotation Xrotation
					JOINT Head
					{
						OFFSET 0.515184 6.496960 5.134897
						CHANNELS 3 Zrotation Yrotation Xrotation
						End Site
						{
							OFFSET 0.000000 0.000000 0.000000
						}
					}
				}
				JOINT LeftShoulder
				{
					OFFSET 7.884473 12.174932 -3.408961
					CHANNELS 3 Zrotation Yrotation Xrotation
					JOINT LeftArm
					{
						OFFSET 9.097692 3.046888 -0.886815
						CHANNELS 3 Zrotation Yrotation Xrotation
						JOINT LeftForeArm
						{
							OFFSET 25.961220 -1.277207 -2.745643
							CHANNELS 3 Zrotation Yrotation Xrotation
							JOINT LeftHand
							{
								OFFSET 24.923361 0.898606 -0.117091
								CHANNELS 3 Zrotation Yrotation Xrotation
								End Site
								{
									OFFSET 0.000000 0.000000 0.000000
								}
							}
						}
					}
				}
				JOINT RightShoulder
				{
					OFFSET -8.175920 11.883285 -3.861528
					CHANNELS 3 Zrotation Yrotation Xrotation
					JOINT RightArm
					{
						OFFSET -9.601238 3.255117 -0.914307
						CHANNELS 3 Zrotation Yrotation Xrotation
						JOINT RightForeArm
						{
							OFFSET -25.374195 -1.332924 -2.140099
							CHANNELS 3 Zrotation Yrotation Xrotation
							JOINT RightHand
							{
								OFFSET -25.529810 0.777228 -0.555919
								CHANNELS 3 Zrotation Yrotation Xrotation
								End Site
								{
									OFFSET 0.000000 0.000000 0.000000
								}
							}
						}
					}
				}
			}
		}
	}
}
MOTION
Frames: 6
Frame Time: 0.033333
313.295502 298.411316 87.370125 -37.624591 4.992125 88.330664 2.200637 0.619861 27.389674 2.975410 -20.570280 -5.032264 -1.930314 11.602822 -15.321874 nan nan nan 4.160644 2.991446 -23.873288 5.022278 -3.314321 8.818257 4.539368 -8.409823 12.530386 nan nan nan -4.535250 -6.976962 2.259554 7.605904 -3.606939 8.965628 2.226287 -3.895916 -2.829348 3.880094 -3.824836 -1.113538 10.415574 -3.565601 -3.553558 -20.379592 0.350779 0.097073 -64.629386 -19.516557 20.323704 9.548854 -24.556439 -18.609044 0.578014 -15.929197 -15.932350 19.489445 -4.189677 -1.997488 60.777043 -2.206904 8.945689 -8.358728 24.657506 -11.059038 -0.414058 10.998051 -19.583179 
312.550018 297.720642 87.394165 -37.665183 5.167361 88.327650 2.168572 0.159937 27.387553 2.730851 -20.605247 -3.818117 -1.953118 12.030659 -15.031731 nan nan nan 4.248822 3.301682 -23.978735 5.244467 -3.493279 10.143806 4.904040 -8.278587 12.724951 nan nan nan -4.455148 -6.961629 2.114098 7.769859 -3.491299 8.665566 2.277059 -3.910129 -2.636505 3.820437 -4.128119 -1.111890 10.307969 -3.563349 -3.207612 -20.082162 0.239106 0.350962 -65.302467 -18.826320 20.427389 9.709323 -23.858822 -18.408530 0.351676 -15.514713 -16.296744 19.361013 -4.094110 -1.942294 60.691432 -2.426412 8.737064 -8.269559 24.521346 -11.114895 -0.180198 10.869410 -19.450897 
311.807068 296.985016 87.447845 -37.554579 5.303839 88.319294 2.084264 -0.470680 27.299910 2.374750 -20.655208 -2.407358 -2.029849 12.539994 -14.709323 nan nan nan 4.322177 3.667643 -23.953740 5.221188 -3.908489 11.427256 5.040539 -8.508548 12.322405 nan nan nan -4.278486 -6.967223 1.829850 7.869212 -3.507743 8.635788 2.273226 -3.950626 -2.581571 3.718956 -4.505667 -0.990248 10.231908 -3.498184 -3.097486 -19.874442 0.186226 0.538495 -65.840890 -18.127367 20.519777 9.753231 -23.055790 -17.945139 0.084936 -15.120109 -16.439632 19.227966 -4.158954 -2.016091 60.711741 -2.611118 8.572377 -8.275222 24.332723 -10.949558 -0.079442 10.696536 -18.969380 
311.034515 296.229034 87.529053 -37.151010 5.479236 88.346906 2.283667 -1.094946 26.956314 1.811631 -20.894334 -0.715405 -2.341417 12.802144 -14.304714 nan nan nan 4.402524 4.538577 -23.751917 4.862995 -4.575238 12.389639 4.863884 -8.950437 11.757533 nan nan nan -4.121751 -7.264276 1.497099 8.009843 -3.745893 8.664507 2.257375 -3.888170 -2.498084 3.464850 -4.516226 -0.593539 10.304040 -3.354623 -3.467204 -19.725488 0.149300 0.736212 -66.215986 -17.404333 20.427190 9.623033 -22.126964 -17.362202 0.081449 -15.278544 -16.817495 19.134823 -4.089796 -1.928506 60.788775 -2.682407 8.359526 -8.438225 23.989719 -10.373736 -0.498085 10.442518 -17.819107 
310.385895 295.514587 87.571426 -37.130090 5.381295 88.490618 1.957844 -1.626339 26.226404 1.180186 -20.737819 1.349355 -2.588605 12.941099 -13.737648 nan nan nan 4.129796 4.601169 -23.837648 5.131474 -4.879035 13.395362 4.619053 -8.816048 11.368136 nan nan nan -3.923073 -7.296092 1.254313 7.914130 -3.889239 8.239020 2.128567 -3.791767 -2.214530 3.219493 -4.499387 -0.380592 10.369743 -3.034686 -3.619883 -19.412409 0.240108 0.858389 -66.748655 -16.730120 20.336084 9.692984 -21.369971 -17.214046 -0.514039 -14.879191 -16.708863 19.018491 -4.079626 -1.819190 60.905015 -2.592986 8.195730 -8.287736 23.437023 -9.700814 0.022581 9.869219 -16.144462 
309.694885 294.768433 87.661987 -36.974116 5.263096 88.578568 1.844585 -2.036999 25.355972 0.271347 -20.708534 3.781626 -2.831364 12.842520 -12.967961 nan nan nan 3.861241 4.598656 -23.690684 5.443568 -5.025218 14.229112 4.293641 -8.708531 10.799236 nan nan nan -3.846208 -7.275127 0.990299 7.854923 -4.063549 8.157348 2.053715 -3.757997 -2.211917 3.066523 -4.416453 -0.139670 10.375172 -2.599284 -3.554015 -19.146396 0.477578 1.055368 -67.190811 -16.228475 20.259793 9.602429 -20.794927 -16.996144 -1.072913 -14.003289 -16.064654 18.957156 -4.222059 -1.799560 60.963747 -2.322423 8.286075 -8.183989 22.661467 -9.191724 0.556878 9.518081 -15.030496 
